<svg id="Layer_1" data-name="Layer 1" xmlns="http://www.w3.org/2000/svg" xmlns:xlink="http://www.w3.org/1999/xlink" viewBox="0 0 160 50"><defs><style>.cls-1{fill:url(#linear-gradient);}.cls-2{fill:url(#linear-gradient-2);}.cls-3{fill:url(#linear-gradient-3);}.cls-4{fill:url(#linear-gradient-4);}.cls-5{fill:url(#linear-gradient-5);}.cls-6{fill:url(#linear-gradient-6);}.cls-7{fill:url(#linear-gradient-7);}.cls-8{fill:url(#linear-gradient-8);}.cls-9{fill:url(#linear-gradient-9);}.cls-10{fill:url(#linear-gradient-10);}.cls-11{fill:url(#linear-gradient-11);}.cls-12{fill:url(#linear-gradient-12);}.cls-13{font-size:4.25px;fill:#414142;font-family:Archivo-Medium, Archivo;font-weight:500;letter-spacing:-0.05em;}.cls-14{letter-spacing:0.03em;}.cls-15{letter-spacing:-0.04em;}.cls-16{letter-spacing:0.02em;}</style><linearGradient id="linear-gradient" x1="19.96" y1="41.71" x2="135.53" y2="3.63" gradientUnits="userSpaceOnUse"><stop offset="0" stop-color="#8cc540"/><stop offset="1" stop-color="#38b34a"/></linearGradient><linearGradient id="linear-gradient-2" x1="19.37" y1="37.63" x2="131" y2="0.84" xlink:href="#linear-gradient"/><linearGradient id="linear-gradient-3" x1="13.25" y1="22.57" x2="128.16" y2="-15.3" xlink:href="#linear-gradient"/><linearGradient id="linear-gradient-4" x1="20.99" y1="42.55" x2="133.86" y2="5.35" xlink:href="#linear-gradient"/><linearGradient id="linear-gradient-5" x1="23.65" y1="48.94" x2="136.24" y2="11.84" xlink:href="#linear-gradient"/><linearGradient id="linear-gradient-6" x1="25.4" y1="53.36" x2="138.24" y2="16.17" xlink:href="#linear-gradient"/><linearGradient id="linear-gradient-7" x1="24.44" y1="52.39" x2="138.26" y2="14.88" xlink:href="#linear-gradient"/><linearGradient id="linear-gradient-8" x1="29" y1="65.37" x2="142.89" y2="27.84" xlink:href="#linear-gradient"/><linearGradient id="linear-gradient-9" x1="31.74" y1="63.73" x2="142.47" y2="27.24" xlink:href="#linear-gradient"/><linearGradient id="linear-gradient-10" x1="27.2" y1="50.44" x2="138.04" y2="13.92" xlink:href="#linear-gradient"/><linearGradient id="linear-gradient-11" x1="56.44" y1="6.95" x2="66.81" y2="6.95" xlink:href="#linear-gradient"/><linearGradient id="linear-gradient-12" x1="-164.51" y1="8.79" x2="-159.3" y2="8.79" gradientTransform="matrix(-1, 0, 0, 1, -108.74, 0)" xlink:href="#linear-gradient"/></defs><path class="cls-1" d="M90.37,48H40.17c-2.82,0-5-.7-6.47-2.08-2.36-2.19-2.34-5.47-2.33-7.85V8.46H34.7V38.09c0,1.95,0,4.38,1.36,5.66a6,6,0,0,0,4.11,1.17h50.2Z"/><path class="cls-2" d="M46.7,41.9H43.36V24.19c0-2.39,0-5.66,2.33-7.85,1.48-1.38,3.66-2.08,6.48-2.08H55v3.09H52.17a6,6,0,0,0-4.12,1.17c-1.38,1.28-1.37,3.7-1.36,5.65V41.9Z"/><rect class="cls-3" x="26.06" y="14.27" width="15.32" height="3.09"/><path class="cls-4" d="M65.25,41.92c-3.55,0-5.88-.87-7.14-2.66A8.5,8.5,0,0,1,57,34.18V30.87l13.1-7.24c0-5.16-.33-6.27-5.12-6.27-2,0-3.36.29-4,.87-.77.73-.73,2.37-.68,4.28,0,.52,0,1.07,0,1.63H57.05q0-.81,0-1.56c-.06-2.49-.12-4.84,1.62-6.5,1.3-1.24,3.32-1.81,6.36-1.81,8.45,0,8.45,4.79,8.45,9.87V34.71C73.45,39.23,70.39,41.92,65.25,41.92Zm-4.9-9.3v1.57a6.25,6.25,0,0,0,.55,3.38c.59.84,2.05,1.26,4.35,1.26,3.32,0,4.87-1.31,4.87-4.12V27.23Z"/><path class="cls-5" d="M83.62,41.85c-3.55,0-5.88-.87-7.14-2.66a8.47,8.47,0,0,1-1.09-5.07V32.06a7.1,7.1,0,0,1,7.23-6.79l5.87-.07V14.25h3.33V34.64C91.82,39.16,88.75,41.85,83.62,41.85Zm4.87-13.56-5.83.07a3.87,3.87,0,0,0-3.94,3.7v2.06a6.29,6.29,0,0,0,.55,3.39c.59.83,2,1.25,4.35,1.25,3.32,0,4.87-1.31,4.87-4.12Z"/><path class="cls-6" d="M102,41.91c-3.54,0-5.87-.84-7.12-2.57a8.08,8.08,0,0,1-1.1-5V31.88l0-7.61c0-.15,0-.32,0-.51,0-1.84-.13-5.26,2.25-7.53a8,8,0,0,1,5.72-2c8.44,0,8.44,4.19,8.44,10V34.84C110.23,41,105.1,41.91,102,41.91Zm-.24-24.55a4.62,4.62,0,0,0-3.33,1c-1.41,1.33-1.34,3.91-1.31,5.29,0,.22,0,.42,0,.59h0l0,10a6.13,6.13,0,0,0,.53,3.3c.58.8,2,1.2,4.36,1.2,4.5,0,4.87-2,4.87-4V24.27C106.9,18.41,106.9,17.36,101.79,17.36Z"/><path class="cls-7" d="M120.44,29.32c-3.55,0-5.89-.88-7.15-2.67-1.09-1.55-1.09-3.43-1.09-5.08V14.26h3.33v7.3a6.33,6.33,0,0,0,.55,3.4c.59.83,2,1.26,4.36,1.26,3.31,0,4.84-1.31,4.84-4.1V20.06c0-1.5,0-3.51,0-5.79h3.33c0,2.27,0,4.28,0,5.78,0,.89,0,1.6,0,2.08C128.62,26.63,125.56,29.32,120.44,29.32Z"/><path class="cls-8" d="M112.2,41.82v-7.3c0-1.65,0-3.53,1.09-5.08,1.26-1.79,3.6-2.67,7.15-2.67,5.12,0,8.18,2.69,8.18,7.19,0,.48,0,1.19,0,2.08,0,1.5,0,3.51,0,5.78h-3.33c0-2.28,0-4.29,0-5.79V34c0-2.79-1.53-4.1-4.84-4.1-2.31,0-3.77.43-4.36,1.26a6.33,6.33,0,0,0-.55,3.4v7.3Z"/><rect class="cls-9" x="130.59" y="19.31" width="3.33" height="22.6"/><rect class="cls-10" x="130.61" y="14.25" width="3.33" height="3.13"/><path class="cls-11" d="M57.09,12.83c-1.12-3.07-.59-4.69,0-5.58,1-1.38,2.52-1.4,4.64-3A12,12,0,0,0,65,.5a7.9,7.9,0,0,1,1.79,4.73,6.57,6.57,0,0,1-.94,3.7C64.78,10.66,63,11.44,61,12.38a20.85,20.85,0,0,1-2.84,1,5,5,0,0,1,.7-2.32,5.49,5.49,0,0,1,1.64-1.73,5.8,5.8,0,0,0-2.12,1.4A5.31,5.31,0,0,0,57.09,12.83Z"/><path class="cls-12" d="M55.44,11.74c.56-1.55.3-2.36,0-2.81-.5-.69-1.27-.7-2.33-1.5a6.11,6.11,0,0,1-1.63-1.88,3.92,3.92,0,0,0-.89,2.37A3.23,3.23,0,0,0,51,9.78a5,5,0,0,0,2.46,1.73,9.49,9.49,0,0,0,1.43.51,2.56,2.56,0,0,0-.35-1.16,3,3,0,0,0-.83-.87,3.17,3.17,0,0,1,1.07.71A2.67,2.67,0,0,1,55.44,11.74Z"/><text class="cls-13" transform="translate(93.24 47.8) scale(1.08 1)">T<tspan class="cls-14" x="2.39" y="0">aste the </tspan><tspan class="cls-15" x="19.57" y="0">T</tspan><tspan class="cls-16" x="22" y="0">r</tspan><tspan class="cls-14" x="23.55" y="0">adition</tspan></text></svg>